<?xml version="1.0" encoding="utf-8"?>
<!-- Generator: Adobe Illustrator 19.1.0, SVG Export Plug-In . SVG Version: 6.00 Build 0)  -->
<!DOCTYPE svg PUBLIC "-//W3C//DTD SVG 1.1//EN" "http://www.w3.org/Graphics/SVG/1.1/DTD/svg11.dtd">
<svg version="1.1" id="Layer_1" xmlns="http://www.w3.org/2000/svg" xmlns:xlink="http://www.w3.org/1999/xlink" x="0px" y="0px"
	 viewBox="0 0 131.4 112.1" style="enable-background:new 0 0 131.4 112.1;" xml:space="preserve">
<style type="text/css">
	.st0{clip-path:url(#SVGID_2_);}
	.st1{clip-path:url(#SVGID_4_);fill:#0090D4;}
</style>
<g>
	<defs>
		<path id="SVGID_1_" d="M74.6,112.1h-62c-0.1-1.8-0.2-3.7-0.3-5.6H0v-7h31.8v-5.6h5.4V87H24.8v-5.5h-5.5v-6.9h-6.7V69h6.6v-6.9H7.1
			v-18h5.3v-6.8H7V7h5.5v5.5h6.9v6.8h5.5v5.6h12.5v7h12.4v5.3h12.4V24.9h6.9V12.4h5.6V6.9h6.9V0h17.9v7H112v5.3h6.8V7h12.5v5.6h-6.9
			v6.6h6.9v5.6h-7v7h-5.5v30.3h-6.9v12.5h-5.4v12.4h-7v7H94v5.5H81.6v6.9h-6.9V112.1z"/>
	</defs>
	<use xlink:href="#SVGID_1_"  style="overflow:visible;fill-rule:evenodd;clip-rule:evenodd;fill:#0090D4;"/>
	<clipPath id="SVGID_2_">
		<use xlink:href="#SVGID_1_"  style="overflow:visible;"/>
	</clipPath>
	<g class="st0">
		<defs>
			<rect id="SVGID_3_" x="-1252" y="-255" width="1440" height="1024"/>
		</defs>
		<use xlink:href="#SVGID_3_"  style="overflow:visible;fill:#0090D4;"/>
		<clipPath id="SVGID_4_">
			<use xlink:href="#SVGID_3_"  style="overflow:visible;"/>
		</clipPath>
		<rect x="-5" y="-5" class="st1" width="141.4" height="122.1"/>
	</g>
</g>
</svg>
